<svg width="24" height="24" viewBox="0 0 24 24" fill="none" xmlns="http://www.w3.org/2000/svg">
<path d="M12.3333 8.33333L9.88889 12H14.7778L12.3333 15.6667M8.91111 23H15.7556C17.1246 23 17.8091 23 18.332 22.7336C18.7919 22.4993 19.1659 22.1253 19.4002 21.6653C19.6667 21.1425 19.6667 20.4579 19.6667 19.0889V4.91111C19.6667 3.5421 19.6667 2.85758 19.4002 2.33469C19.1659 1.87473 18.7919 1.50078 18.332 1.26643C17.8091 1 17.1246 1 15.7556 1H8.91111C7.5421 1 6.85758 1 6.33469 1.26643C5.87473 1.50078 5.50078 1.87473 5.26643 2.33469C5 2.85758 5 3.54209 5 4.91111V19.0889C5 20.4579 5 21.1425 5.26643 21.6653C5.50078 22.1253 5.87473 22.4993 6.33469 22.7336C6.85758 23 7.54209 23 8.91111 23Z" stroke="#A3AED0" stroke-width="1.5" stroke-linecap="round" stroke-linejoin="round"/>
</svg>
