<svg width="12" height="12" viewBox="0 0 12 12" fill="none" xmlns="http://www.w3.org/2000/svg">
<g clip-path="url(#clip0_40000071_6051)">
<path d="M4.89066 1.94562C5.1726 1.70536 5.31357 1.58523 5.46096 1.51478C5.80185 1.35184 6.19816 1.35184 6.53905 1.51478C6.68644 1.58523 6.82741 1.70536 7.10935 1.94562C7.22156 2.04125 7.27766 2.08906 7.33758 2.12922C7.47494 2.22129 7.6292 2.28518 7.79142 2.31721C7.86219 2.33118 7.93567 2.33705 8.08264 2.34877C8.45189 2.37824 8.63651 2.39297 8.79055 2.44738C9.14681 2.57322 9.42704 2.85344 9.55288 3.20971C9.60728 3.36374 9.62202 3.54837 9.65148 3.91762C9.66321 4.06458 9.66908 4.13806 9.68305 4.20883C9.71507 4.37106 9.77897 4.52531 9.87103 4.66267C9.91119 4.72259 9.95901 4.7787 10.0546 4.89091C10.2949 5.17285 10.415 5.31381 10.4855 5.4612C10.6484 5.8021 10.6484 6.1984 10.4855 6.5393C10.415 6.68669 10.2949 6.82765 10.0546 7.10959C9.95901 7.2218 9.91119 7.27791 9.87103 7.33783C9.77897 7.47519 9.71507 7.62944 9.68305 7.79167C9.66908 7.86244 9.66321 7.93592 9.65148 8.08288C9.62202 8.45213 9.60728 8.63676 9.55288 8.79079C9.42704 9.14706 9.14681 9.42728 8.79055 9.55312C8.63652 9.60753 8.45189 9.62226 8.08264 9.65173C7.93567 9.66345 7.86219 9.66932 7.79142 9.68329C7.6292 9.71532 7.47494 9.77921 7.33759 9.87128C7.27766 9.91144 7.22156 9.95925 7.10935 10.0549C6.82741 10.2951 6.68644 10.4153 6.53905 10.4857C6.19816 10.6487 5.80185 10.6487 5.46096 10.4857C5.31357 10.4153 5.1726 10.2951 4.89066 10.0549C4.77845 9.95925 4.72235 9.91144 4.66243 9.87128C4.52507 9.77921 4.37081 9.71532 4.20859 9.68329C4.13782 9.66932 4.06434 9.66345 3.91738 9.65173C3.54812 9.62226 3.3635 9.60753 3.20946 9.55312C2.8532 9.42728 2.57297 9.14706 2.44714 8.79079C2.39273 8.63676 2.378 8.45213 2.34853 8.08288C2.3368 7.93592 2.33094 7.86244 2.31697 7.79167C2.28494 7.62944 2.22104 7.47519 2.12898 7.33783C2.08882 7.27791 2.04101 7.2218 1.94538 7.10959C1.70512 6.82766 1.58498 6.68669 1.51454 6.5393C1.3516 6.1984 1.3516 5.8021 1.51454 5.4612C1.58498 5.31381 1.70512 5.17285 1.94538 4.89091C2.04101 4.7787 2.08882 4.72259 2.12898 4.66267C2.22104 4.52531 2.28494 4.37106 2.31697 4.20883C2.33094 4.13806 2.3368 4.06458 2.34853 3.91762C2.378 3.54837 2.39273 3.36374 2.44714 3.20971C2.57297 2.85344 2.8532 2.57322 3.20946 2.44738C3.3635 2.39297 3.54812 2.37824 3.91738 2.34877C4.06434 2.33705 4.13782 2.33118 4.20859 2.31721C4.37081 2.28518 4.52507 2.22129 4.66243 2.12922C4.72235 2.08906 4.77845 2.04125 4.89066 1.94562Z" fill="white" stroke="#188A94"/>
<path d="M4.25 6.25L5.25 7.25L7.75 4.75" stroke="#188A94" stroke-linecap="round" stroke-linejoin="round"/>
</g>
<defs>
<clipPath id="clip0_40000071_6051">
<rect width="12" height="12" fill="white"/>
</clipPath>
</defs>
</svg>
