<svg width="26" height="26" viewBox="0 0 26 26" fill="none" xmlns="http://www.w3.org/2000/svg">
<g clip-path="url(#clip0_40000071_5998)">
<path d="M6.93334 9.96699H7.15C7.98417 9.96699 8.66667 10.6495 8.66667 11.4837V19.067C8.66667 19.9012 7.98417 20.5837 7.15 20.5837H6.93334C6.09917 20.5837 5.41667 19.9012 5.41667 19.067V11.4837C5.41667 10.6495 6.09917 9.96699 6.93334 9.96699ZM13 5.41699C13.8342 5.41699 14.5167 6.09949 14.5167 6.93366V19.067C14.5167 19.9012 13.8342 20.5837 13 20.5837C12.1658 20.5837 11.4833 19.9012 11.4833 19.067V6.93366C11.4833 6.09949 12.1658 5.41699 13 5.41699ZM19.0667 14.0837C19.9008 14.0837 20.5833 14.7662 20.5833 15.6003V19.067C20.5833 19.9012 19.9008 20.5837 19.0667 20.5837C18.2325 20.5837 17.55 19.9012 17.55 19.067V15.6003C17.55 14.7662 18.2325 14.0837 19.0667 14.0837Z" fill="#A3AED0"/>
</g>
<defs>
<clipPath id="clip0_40000071_5998">
<rect width="26" height="26" fill="white"/>
</clipPath>
</defs>
</svg>
